<?xml version="1.0" encoding="utf-8"?>
<!-- Generator: Adobe Illustrator 19.2.1, SVG Export Plug-In . SVG Version: 6.00 Build 0)  -->
<svg version="1.1" id="layer" xmlns="http://www.w3.org/2000/svg" xmlns:xlink="http://www.w3.org/1999/xlink" x="0px" y="0px"
	 viewBox="0 0 652 652" style="enable-background:new 0 0 652 652;" xml:space="preserve">
<style type="text/css">
	.st0{fill:#0091D1;}
</style>
<polygon class="st0" points="21.1,345.9 355.9,345.9 323.4,379.1 "/>
<path class="st0" d="M68.9,294.4h8.3c4.4,0,8.5-5,9.6-9.8c1.2-6,0.7-11.1-6-11.1h-7.5L68.9,294.4z M60.6,262.2h26.9
	c13.7,0,17.2,8.5,14.5,21.9c-1.7,8.3-6.8,21.5-24.3,21.5H66.5l-6.2,29.8H45.4L60.6,262.2z M124.6,262.2l-15.2,73.2h-14l15.2-73.2
	H124.6z M126.5,335.9l-2.9-51.6h13.9l-0.4,36h0.2l15-36h13.5l-33.9,70.6h-14.6L126.5,335.9z M182.3,289.4h0.2
	c3.7-4.6,7.8-6.2,13.1-6.2c4.9,0,8.4,2.4,9.8,6.5c4.2-4.5,8.6-6.5,14.3-6.5c6.6,0,11.6,4.1,10.2,11.2l-8.5,41.1h-14l7.3-35.3
	c0.9-4.6,0.9-8.1-3.6-8.1c-4.5,0-6,3.5-6.9,8.1l-7.3,35.3h-13.6l7.3-35.3c0.9-4.6,0.9-8.1-3.6-8.1c-4.5,0-6,3.5-6.9,8.1l-7.3,35.3
	h-14l10.6-51.2h13.9L182.3,289.4z M257.9,308.4c2.2-10.6,2.8-16-3.1-16c-5.9,0-7.5,5.4-9.8,16c-3.2,15.6-2.7,19,2.5,19
	C252.7,327.4,254.7,324,257.9,308.4 M230.9,309.2c2.9-14,7.4-26,25.8-26c18.4,0,17.9,12,15,26c-3.3,16-8,27.3-26,27.3
	C227.7,336.5,227.6,325.2,230.9,309.2 M296.1,330.3h-0.2c-3.7,4.6-7.8,6.2-13.1,6.2c-6.6,0-11.6-4.1-10.1-11.2l8.5-41.1h13.9
	l-7.4,35.5c-1,4.6-0.9,7.9,3.6,7.9c4.5,0,5.9-3.3,6.9-7.9l7.4-35.5h14l-8.5,41.1c-0.7,3.3-1.2,6.8-1.6,10.1h-14.4L296.1,330.3z
	 M323.6,284.2h5.6l1.7-8.1l15.3-6.4l-3,14.5h7.2l-1.8,8.8h-7.2l-5.7,27.4c-0.8,3.8-1.4,6.4,3.1,6.4c0.9,0,1.8,0,2.5-0.2l-1.8,8.8
	c-1.9,0.2-4,0.5-7.3,0.5c-12.1,0-11.9-8.2-11.3-11.4l6.5-31.6h-5.6L323.6,284.2z M368.9,335.5l7.3-35.3c0.9-4.6,0.9-8.1-3.6-8.1
	c-4.4,0-6,3.5-6.9,8.1l-7.3,35.3h-13.9l15.2-73.2h14l-5.6,27.2h0.2c3.7-4.6,7.8-6.2,13.1-6.2c6.6,0,11.6,4.1,10.2,11.2l-8.5,41.1
	H368.9z M434.9,293.9h6.6c5.9,0,8.9-6.1,9.8-10.8c1.4-7-0.9-9.6-5.6-9.6h-6.6L434.9,293.9z M426.3,335.5h-14.9l15.2-73.2h27.6
	c10.2,0,15.3,6.7,12.7,19.2c-1.9,9.3-6.9,16.3-17,18l0,0.2c3.2,0.4,12.7,1.2,10,14.4c-1,4.7-3.5,18.5-2.8,21.5h-14.6
	c-1.1-4.5,0.4-9.4,1.4-14.2c1.8-8.7,4.1-16.1-7.3-16.1h-3.9L426.3,335.5z M491.8,308.4c2.2-10.6,2.8-16-3.1-16
	c-5.9,0-7.5,5.4-9.8,16c-3.2,15.6-2.6,19,2.5,19C486.6,327.4,488.6,324,491.8,308.4 M464.9,309.2c2.9-14,7.4-26,25.8-26
	c18.4,0,17.9,12,15,26c-3.3,16-8,27.3-26,27.3C461.6,336.5,461.5,325.2,464.9,309.2 M537.4,302.5c1.6-7.6,0.2-10.1-4.1-10.1
	c-5.9,0-7.5,5.4-9.8,16c-3.2,15.6-2.6,19,2.5,19c4.3,0,7.3-4,8.7-10.8h14c-2.9,13.9-11.5,19.9-24.5,19.9c-18,0-18-11.3-14.7-27.3
	c2.9-14,7.4-26,25.8-26c12.9,0,19,5.9,16.2,19.3H537.4z M549.2,335.5l15.2-73.2h14l-9,43.6h0.2l17-21.6h14.5l-18.9,22.8l9.8,28.4
	h-15.7l-7.2-27.9H569l-5.8,27.9H549.2z M366.2,363.4c-3.3,0.2-7.9,1.4-8.7,5.6c-0.7,3.6,1.3,5.4,4.4,5.4c6.3,0,8.6-5.6,9.6-10.9
	H366.2z M372.3,359.6c1-5,1.4-7.9-4.3-7.9c-2.7,0-5.5,1.6-6.2,4.6h-5.6c1.6-6.3,6.9-8.6,12.4-8.6c5.8,0,11.1,1.8,9.5,9.8l-2.9,13.8
	c-0.3,1.3-0.7,3.7-1,6.1h-3.6c-0.5,0-1.5,0.3-1.4-0.4c0.2-1.3,0.3-2.6,0.5-3.9h-0.1c-2.5,3.6-5.9,5.2-9.8,5.2
	c-4.9,0-9.3-2.6-8.1-8.2c1.7-8.1,9.2-10.5,15.8-10.5H372.3z M397.1,347.7c5.3,0,10.9,2.3,9.1,8.9h-5.6c1-3.7-1.5-4.9-4.6-4.9
	c-2.9,0-5.4,1.4-6.1,4.6c-0.7,3.2,4.1,3.5,6,4.1c4.4,1.6,9.8,2.2,8.5,8.7c-1.5,7.1-8.6,9.3-14.4,9.3c-5.9,0-10.3-2.8-8.8-9.4h5.6
	c-0.6,3.6,1.3,5.5,4.6,5.5c3.1,0,6.6-1.3,7.4-5c1.3-6.4-16.8-1.6-14.4-12.9C385.5,350.4,392,347.7,397.1,347.7 M424.2,347.7
	c5.3,0,10.8,2.3,9.1,8.9h-5.6c1-3.7-1.5-4.9-4.6-4.9c-2.9,0-5.4,1.4-6.1,4.6c-0.7,3.2,4.1,3.5,6,4.1c4.4,1.6,9.8,2.2,8.5,8.7
	c-1.5,7.1-8.6,9.3-14.4,9.3c-5.9,0-10.3-2.8-8.8-9.4h5.6c-0.6,3.6,1.3,5.5,4.6,5.5c3.1,0,6.6-1.3,7.4-5c1.3-6.4-16.8-1.6-14.4-12.9
	C412.6,350.4,419.1,347.7,424.2,347.7 M459.7,348.6h5.3l-6,28.9h-5.2l0.9-4.3h-0.1c-2.9,3.6-6.8,5.1-10.7,5.1
	c-5.9,0-8.3-4.6-7.1-10.4l4-19.3h5.3l-3.5,17.1c-1,5-0.7,8.7,4.4,8.7c2.2,0,5.4-1.2,7.1-4.1c1.6-2.7,2.3-6.1,2.5-6.8L459.7,348.6z
	 M471.6,377.4h-5.3l6-28.9h5.3l-1.2,5.6h0.1c1.6-4,5.6-6,9.5-6c0.7,0,1.2,0.1,1.8,0.1l-1.1,5.2c-0.7-0.3-1.5-0.3-2.2-0.3
	c-6.8,0.2-8.7,3.9-10,10L471.6,377.4z M499.2,363.4c-3.3,0.2-7.9,1.4-8.7,5.6c-0.7,3.6,1.3,5.4,4.4,5.4c6.3,0,8.6-5.6,9.6-10.9
	H499.2z M505.3,359.6c1-5,1.4-7.9-4.3-7.9c-2.7,0-5.5,1.6-6.2,4.6h-5.6c1.6-6.3,6.9-8.6,12.4-8.6c5.8,0,11.1,1.8,9.5,9.8l-2.9,13.8
	c-0.3,1.3-0.7,3.7-1,6.1h-3.6c-0.5,0-1.5,0.3-1.4-0.4c0.2-1.3,0.3-2.6,0.5-3.9h-0.1c-2.5,3.6-6,5.2-9.8,5.2c-4.9,0-9.3-2.6-8.1-8.2
	c1.7-8.1,9.2-10.5,15.9-10.5H505.3z M524.1,352.8h0.1c2.6-3.6,6.8-5.1,9.6-5.1c2,0,10.6,0.5,8.6,9.8l-4.1,20h-5.3l3.8-18.2
	c1-4.8-0.4-7.4-4.9-7.4c0,0-2.9-0.2-5.6,2.1c-0.9,0.8-2.7,2.1-3.8,7.7l-3.3,15.7h-5.3l6-28.9h5.2L524.1,352.8z M565.5,357.8
	c0.5-3.6-0.7-6.2-4.5-6.2c-5.1,0-8,4.5-9.4,11.3c-1.4,6.8-0.4,11.3,4.7,11.3c3.5,0,6.2-2.4,7.3-6.5h5.3c-1.8,6.5-7.3,10.5-13.6,10.5
	c-9,0-11.3-6.5-9.5-15.1c1.7-8.5,7.4-15.5,16.3-15.5c5.9,0,9.6,3.9,8.6,10.1H565.5z M594,360.3c1.1-4.8-0.2-8.6-5.4-8.6
	c-4.4,0-7.9,3.9-8.8,8.6H594z M579,364c-1.4,5.1-0.5,10.3,4.9,10.3c4.2,0,6.6-1.7,8.1-5.9h5.6c-2.2,6.6-7.8,9.8-14.5,9.8
	c-9,0-11.3-6.5-9.5-15.1c1.8-8.5,7.4-15.5,16.3-15.5c8.4,0.2,11.2,5.6,9.6,13.6l-0.6,2.7H579z M613.3,371h1.5c0.5,0,0.9-0.1,1.2-0.2
	c0.3-0.2,0.4-0.5,0.4-1l-0.5-0.9l-1.1-0.2h-1.5V371z M612,367.6h3c1.8,0,2.6,0.7,2.6,2.2c0,0.7-0.2,1.2-0.5,1.6
	c-0.4,0.4-0.8,0.6-1.5,0.6l2.2,3.5h-1.3l-2.1-3.5h-1.1v3.5H612V367.6z M610.8,375.7c1,1.1,2.3,1.7,3.8,1.7c1.6,0,2.8-0.6,3.8-1.7
	c1-1.1,1.5-2.4,1.5-4.1c0-1.7-0.5-3-1.5-4.1c-1-1.1-2.3-1.6-3.8-1.6c-1.6,0-2.8,0.6-3.8,1.6c-1,1.1-1.5,2.4-1.5,4.1
	C609.2,373.3,609.7,374.6,610.8,375.7 M609.9,366.8c1.2-1.3,2.8-1.9,4.6-2c1.9,0,3.4,0.7,4.7,2c1.3,1.3,1.9,2.9,1.9,4.8
	c0,1.9-0.7,3.5-1.9,4.8c-1.2,1.3-2.8,2-4.7,2c-1.9,0-3.4-0.7-4.6-2c-1.3-1.3-1.9-2.9-2-4.8C608,369.7,608.6,368.1,609.9,366.8"/>
</svg>
