<?xml version="1.0" encoding="utf-8"?>
<!-- Generator: Adobe Illustrator 25.0.1, SVG Export Plug-In . SVG Version: 6.00 Build 0)  -->
<svg version="1.0" id="Layer_1" xmlns="http://www.w3.org/2000/svg" xmlns:xlink="http://www.w3.org/1999/xlink" x="0px" y="0px"
	 viewBox="0 0 1080 721" style="enable-background:new 0 0 1080 721;" xml:space="preserve">
<style type="text/css">
	.st0{fill:#FFFFFF;}
	.st1{fill:#1A1446;}
	.st2{fill:none;}
</style>
<rect x="197.3" y="107.9" class="st0" width="638.7" height="259.3"/>
<path class="st1" d="M168.2,394h14.4v127h-14.4V394z M207.9,429h11.8v14c7.5-9.3,18.7-14.8,30.6-15.3c15.2,0,24,9.2,24,25.8V521
	h-12.5v-63.2c0-12.9-3.9-19.3-14.9-19.3c-10.3,0.6-19.9,5.6-26.3,13.7V521h-13L207.9,429z M298.2,497c5.8,9,15.7,14.6,26.4,14.8
	c11.3,0,18.6-6.5,18.6-15.4c0-12.4-10.5-12.9-28.4-18.6c-15.8-4.8-23.3-12.9-23.3-25.1c0-15,11.4-25.1,27.9-25.1
	c12.8-0.3,25.1,5.3,33.2,15.3l-8.5,8.5c-5.5-7.9-14.4-12.7-24-12.9c-9.5,0-15.6,5.2-15.6,13.3c-0.1,3.7,1.6,7.3,4.6,9.5
	c6.5,4.4,14.8,5.5,24.5,8.6c15.4,4.9,22.4,12.8,22.4,25.7c0,16.4-12.5,27.6-33,27.6c-14,0.2-27.1-6.6-35-18.1L298.2,497z
	 M438.1,520.9h-11.6v-13.8c-7.6,9.3-18.8,14.9-30.8,15.4c-15.2,0-24-9.2-24-25.5v-68h13v63.2c0,12.8,3.9,19.3,14.8,19.3
	c10.2-0.6,19.7-5.7,25.9-13.8V429h13L438.1,520.9L438.1,520.9z M463.8,429h13v21c6.5-14.8,14.5-22,26.7-22c1-0.1,2-0.1,3.1,0v12.9
	H505c-12.6,0-22.5,10-28.2,29V521h-13L463.8,429L463.8,429z M535.8,522.3c-13.4,0.6-24.8-9.8-25.4-23.2c0-0.7,0-1.3,0-2
	c0-20.2,17.7-30.2,55.3-37.4v-6.5c0-8.2-7.5-14.4-18.6-14.4c-9.7-0.2-18.6,5.5-22.6,14.4l-11.1-6.1c6.6-12.7,20.1-20.2,34.4-19.3
	c19.4,0,30.9,9.8,30.9,27.1v51.6c0,4.6,0.7,9.1,2,13.5v1.5h-14.2l-1.3-13C557.9,517.2,547.2,522.2,535.8,522.3L535.8,522.3z
	 M565.7,471.6c-28.8,5.9-42.6,12.9-42.6,25.8c-0.3,7.3,5.4,13.5,12.8,13.8c0.8,0,1.5,0,2.2-0.1c8.1,0,17-4.7,27.6-14.1V471.6z
	 M603.2,429h11.8v14c7.5-9.3,18.6-14.9,30.6-15.5c15.3,0,24.1,9.2,24.1,25.8V521h-12.5v-63.2c0-12.9-3.9-19.3-14.9-19.3
	c-10.4,0.6-20,5.6-26.4,13.8V521h-13L603.2,429z M723.5,522.5c-23.9,0-37-16.5-37-47.5s14.1-47.7,37.1-47.7
	c15.5-0.3,29.2,9.9,33.4,24.8l-13,4c-2.1-10-10.8-17.3-21.1-17.7c-15,0-23.6,12.5-23.6,36.6s8.6,36.5,24.6,36.5
	c9.6,0,18.4-6.5,24.1-18.5l10.6,5.6C753.2,513.2,739.1,522.8,723.5,522.5L723.5,522.5z M840,500.9c-6.5,14.3-21.3,22.9-36.9,21.6
	c-23.8,0-37-16.3-37-47.5c0-30.2,14.1-47.5,36-47.5s36,16.5,36,46.1v3.9h-58.7v3c0,19.3,10.2,31,25.1,31c11.1,0,21.2-6.4,25.9-16.5
	L840,500.9z M824.7,466.3c-0.3-18-9.1-28.2-22.3-28.2s-22.3,10.2-23.1,28.2L824.7,466.3L824.7,466.3z M852.9,493.9h24.2v3.5H867
	v25.8h-3.7v-25.8h-10.4L852.9,493.9z M908.7,523.4v-24.8l-8.4,24.8h-4.2l-8.2-24.8v24.8H884v-29.5h5.6l8.4,24.9l8.5-24.9h5.7v29.5
	H908.7L908.7,523.4z M176.7,597.2c0,1.2,0.7,1.5,1.9,1.6s2.9,0,2.9,1.3s-0.4,0.7-1.2,0.7s-3-0.4-6.4-0.4H169c-1,0-1.3,0-1.3-0.7
	s2.1-0.4,3.7-1.3s1.7-2.2,2.5-4.3l11.4-29.2c0.3-0.9,0.5-1.3,1.2-1.3s1.1,1.1,1.7,2.7l10.8,27c1.1,2.5,1.8,4.3,3.5,5.1
	c1.7,0.9,2.7,0.5,2.7,1.3s-0.4,0.7-1.2,0.7h-13.7c-0.9,0-1.3,0-1.3-0.7s0.9-0.8,2.3-0.9c1.4-0.1,2.1,0,2.1-1.3
	c-0.1-0.9-0.3-1.8-0.7-2.7l-2.8-7.2c0-0.4-0.5-0.5-1.1-0.5h-8.4c-0.3,0-0.6,0.2-0.7,0.5l-1.7,5.1c-0.6,1.5-0.9,3-1.1,4.6
	L176.7,597.2z M180.7,584.9c0,0,0,0.3,0.4,0.3h7.2c0.3,0.1,0.6-0.1,0.7-0.4c0,0,0-0.1,0-0.1v-0.5l-3.9-9.8c0-0.3-0.1-0.5-0.4-0.5
	c0,0,0,0,0,0l0,0c-0.1,0-0.3,0-0.4,0.5l-3.3,10C180.9,584.4,180.7,584.6,180.7,584.9L180.7,584.9z M235.5,598.9
	c2.4,0.1,4.7-0.8,6.4-2.4c2.5-2.5,3.6-4.5,4.4-4.5s0.7,0,0.7,0.6c0,0.3,0,0.5,0,0.8l-0.7,5.3c0,1.6,0,2-1.6,2c-3.3,0-9-0.5-17.2-0.5
	c-2.2,0-4.4,0.2-6.5,0.4c-0.5,0-1.5-0.4-1.5-0.9s1.2-0.7,2.7-1c1.5-0.3,2.4-0.9,2.4-3.4v-25.8c0-1.9,0-2.3-1.7-2.7
	c-1.7-0.3-2.8,0-2.8-0.9s0.3-0.8,1-0.8c2.1,0.3,4.3,0.4,6.5,0.5c2.3-0.1,4.7-0.4,6.9-0.7c0.7,0,1.1,0,1.1,0.8s-1.2,0.7-3,0.9
	s-1.9,0.7-1.9,2.7V595C230.9,597.7,232.5,598.9,235.5,598.9L235.5,598.9z M259.8,598.7c1.5,0.5,2.6,0,2.6,1.1s-0.4,0.9-1.2,0.9
	s-3.2-0.4-5.8-0.4c-2.6,0-4.2,0.4-5.3,0.4s-1,0-1-0.9s0.9-0.7,2.1-1.1s1.2-1,1.2-2.4v-13.5c0-1.5,0-2.2-1.1-2.5s-1.9,0-1.9-0.9
	s1.3-1.1,3.9-2.3s3.7-2.7,4.3-2.7s0.8,0.4,0.8,1.2v20.8C258.3,597.8,258.7,598.3,259.8,598.7L259.8,598.7z M255.7,571
	c-1.7,0-3.2-1.3-3.2-3.1c0-0.9,0.3-1.7,0.9-2.3c1.2-1.3,3.2-1.3,4.5-0.1c1.3,1.2,1.3,3.2,0.1,4.5C257.3,570.6,256.5,570.9,255.7,571
	z M265.7,565.8c-1.1-0.5-2.1-0.5-2.1-1.1s1.3-0.9,3.3-1.5c3.3-0.9,4.7-2.1,5.2-2.1s0.9,0.4,0.9,1.1v16.4h0.5l0.9-0.7
	c2.1-2,4.9-3.1,7.8-3.2c6.6,0.1,11.8,5.6,11.7,12.2c0,0.2,0,0.5,0,0.7c0.2,7.6-5.8,13.9-13.4,14.1c0,0,0,0,0,0c-0.4,0-0.8,0-1.2,0
	c-3-0.2-6-0.9-8.9-1.9c-1.5,0-2.1,3-3.3,3c-1.2,0-0.8-0.4-0.8-1.1s0.6-4.2,0.6-9.3v-24.5C266.8,566.5,266.8,566.1,265.7,565.8
	L265.7,565.8z M272.7,594.6c-0.1,1.5,0.4,3,1.6,4c1.1,1.1,2.7,1.6,4.2,1.3c5.4-0.3,9.6-4.9,9.4-10.3c0-0.2,0-0.5-0.1-0.8
	c0.7-5.2-2.9-9.9-8.1-10.6c0,0,0,0,0,0c-0.4-0.1-0.9-0.1-1.3-0.1c-5.2,0-5.7,2.7-5.7,7.9V594.6z M313.6,598.2c3-0.1,6-1.3,8.2-3.3
	c0.4,0,0.7,0,0.7,0.7s-0.7,1.5-2,2.7c-2.9,2.4-6.5,3.6-10.2,3.5c-6.9,0.3-12.8-5.1-13.1-12c0,0,0,0,0,0c0-0.5,0-1,0-1.5
	c-0.5-7.1,4.9-13.2,12-13.6c0,0,0,0,0,0c0.6,0,1.2,0,1.9,0c7,0,11.5,4.1,11.5,8.8c0,1.1-0.7,1.3-2.4,1.3h-15.9c-0.7,0-0.8,0-0.8,0.9
	v1.3c-0.7,5.5,3.2,10.6,8.7,11.4c0.4,0.1,0.9,0.1,1.3,0.1L313.6,598.2z M316.3,579.9c-0.3-2.5-2.6-4.3-5.1-4c0,0,0,0,0,0H311
	c-3.2,0-6,2.2-6.8,5.4v0.9c0,0,0,0.5,0.9,0.5h4.6c4.3,0.2,6.5-0.2,6.5-2.8L316.3,579.9z M335.5,578.3c0.3,0,0.5-0.2,0.7-0.4l1.5-1.3
	c1.3-1.3,3-2.1,4.9-2.2c2.4-0.2,4.4,1.6,4.6,4c-0.1,1.7-1.5,3-3.2,2.9c0,0,0,0,0,0h-0.1c-2.8,0-4.1-2.7-5.6-2.7s-2.7,1.7-2.7,5.3
	v12.3c-0.2,1.1,0.6,2.2,1.7,2.4c0,0,0.1,0,0.1,0c1.5,0.5,3.4,0,3.4,1.3s-0.5,0.8-1.5,0.8c-2.1,0-4.4-0.4-6.5-0.4s-4.5,0.4-5.9,0.4
	c-1.4,0-1.1,0-1.1-1s1-0.5,2.7-1.1c1.7-0.6,1.4-1.1,1.4-2.4v-13.5c0-1.5,0-2.1-1-2.5s-2,0-2-0.9s1.3-0.9,3.5-2.2s3.9-2.9,4.4-2.9
	s0.8,0.4,0.8,1.2v2.2C335.2,578.2,335.3,578.3,335.5,578.3L335.5,578.3z M350.5,578.1h-1.3c-0.9,0-1.3,0-1.3-0.8s2.1-1.1,4.6-3.4
	s3.3-3.8,4.1-3.8s0.7,0.5,0.7,1.3v3.5c0,0.5,0.4,0.7,1,0.7h5.3c0.8,0,0.9,0,0.9,0.7v1.1c0,0.7,0,0.9-0.9,0.9H358
	c-0.7,0-0.9,0-0.9,0.7v13.5c0,4.1,0.4,6,2.9,6c2.5,0,3.3-1.5,4.1-1.5c0.4,0,0.7,0.2,0.7,0.6c0,0.1,0,0.1,0,0.2
	c0,1.1-3.7,4.1-7.8,4.1s-5.9-2.9-5.9-8.7v-13.1c0-1.3,0-1.8-0.7-1.8L350.5,578.1z M388.4,578.9c0-0.9-0.7-1.1-1.7-1.3
	s-2.4-0.5-2.4-1.2s0-0.8,0.9-0.8h9.8c0.7,0,0.6,0,0.6,0.7s-0.7,0.8-1.9,1.1c-1.3,0.3-2,1.2-2.9,2.9l-6,12.4
	c-4.6,10-6.5,16.1-7.4,17.8s-1.7,2.7-4.3,2.7s-2.7-0.7-2.7-2.1c-0.1-1.6,1.2-3,2.8-3.1c0.2,0,0.3,0,0.5,0c1.5,0,2.2,0,3.1-2l1.5-3.2
	c0.3-0.5,0.4-1.1,0.5-1.7c-0.1-1.3-0.5-2.5-1-3.7l-5.8-14.3c-1.2-2.8-2.1-4.7-3.3-5.2s-2.8-0.4-2.8-1.4s0-0.7,0.9-0.7h6.5
	c2.2,0.1,4.3,0.1,6.5,0c0.5,0,0.7,0,0.7,0.7s0,0.8-0.9,1s-2.4,0-2.4,1.1c0,1.2,0.3,2.4,0.8,3.5l4,10.1c0,0.3,0.3,0.6,0.6,0.7
	c0.1,0,0.3,0,0.5-0.7l4.4-9.7C387.9,581.1,388.3,580,388.4,578.9L388.4,578.9z M421.7,572.2l-0.4,1.1l-1.2,17.3v3.3
	c0,3.6,0.7,5,3.3,5h0.9c0.9,0,1.3,0,1.3,0.8s-0.7,0.9-1.9,0.9h-9.3c-1.1,0-1.7,0-1.7-0.9s0-0.8,1.1-0.8h1.2c2.7,0,2.7-2.5,3.1-9.1
	l1.2-19.3v-1c0-1.9,0-2.4-1.8-2.7s-2.9,0-2.9-0.9s0.3-0.8,1-0.8h9.3c0.5,0,0.9,0,1.1,0.5l9.4,22.9c0,0.3,0.2,0.6,0.5,0.7
	c0.1,0,0.4,0,0.7-0.7l9.3-22.5c0-0.6,0.5-1,1.1-0.9c0,0,0,0,0.1,0h9.3c0.7,0,1,0,1,0.8s-1.7,0.5-3.5,1.1s-1.3,0.8-1.3,2.4v1.3
	l0.7,24.8c0,2.3,0,3,2.4,3.5s2.7,0,2.7,0.9s-0.5,0.9-1.4,0.9h-13.5c-1.3,0-1.5,0-1.5-0.9s0.5-0.8,1.1-0.8c3.3,0,3.8-0.7,3.8-3.5
	v-1.3l-0.5-21c0-0.5,0-0.7-0.3-0.7s0,0-0.4,0.7L435.4,599c-0.2,0.5-0.7,0.8-1.2,0.8c-0.5,0-0.9-0.2-1.1-0.7l-10.7-25.9
	c-0.5-0.9-0.7-1.1-0.8-1.1L421.7,572.2z M462.8,577.4c-1.4-0.6-2.7,0-2.7-1.1s0.4-1,1.2-1s2.8,0.5,5.2,0.5h2.5c0.6,0,1.1,0,1.1,0.9
	v15.1c-0.4,3.1,1.8,6,4.9,6.4c0,0,0,0,0,0c0.3,0,0.7,0,1,0c1.7,0.3,3.5-0.3,4.8-1.5c1.3-1.2,1.9-2.9,1.7-4.6v-12.2
	c0-1.3,0-2-1.3-2.4s-2.7,0-2.7-1.1s0.5-1,1.2-1s2.5,0.4,5.1,0.4h2.6c0.4,0,1.1,0,1.1,0.9V596c0,1.6,0,2.2,1.1,2.6s2.1,0,2.1,0.9
	s-0.9,0.9-2.7,1.5c-1.7,0.5-3.5,0.9-5.3,1.2c-0.7,0-0.9-0.3-0.9-1.1v-2.3c0-0.5,0-0.9-0.3-0.9l-0.5,0.4l-0.7,0.8c-2,2-4.7,3.1-7.6,3
	c-4.7,0.5-8.9-2.9-9.3-7.6c0-0.3,0-0.7,0-1v-12.9c-0.5-2-0.8-2.8-1.8-3.2L462.8,577.4z M497.2,578.1h-1.3c-0.9,0-1.2,0-1.2-0.7
	c0-0.9,2-1.2,4.6-3.5s3.3-3.8,4.1-3.8s0.7,0.5,0.7,1.3v3.5c0,0.5,0.4,0.7,0.9,0.7h5.3c0.9,0,0.9,0,0.9,0.7v1.1c0,0.7,0,0.9-0.9,0.9
	h-5.3c-0.7,0-1,0-1,0.7v13.5c0,4.1,0.5,6,2.9,6s3.3-1.5,4.2-1.5c0.4,0,0.7,0.3,0.7,0.7c0,0,0,0.1,0,0.1c0,1.1-3.6,4.1-7.7,4.1
	s-6-2.9-6-8.7v-13.1C498.1,578.7,498.1,578.1,497.2,578.1L497.2,578.1z M515.4,577.4c-1.5-0.6-2.7,0-2.7-1.1s0.4-1,1.2-1
	s2.8,0.5,5.1,0.5h2.7c0.5,0,1,0,1,0.9v15.1c-0.4,3.2,1.9,6,5,6.4c0,0,0,0,0,0c0.3,0,0.7,0,1,0c1.7,0.3,3.4-0.3,4.7-1.5
	c1.3-1.1,2-2.9,1.8-4.6v-12.2c0-1.3,0-2-1.3-2.4s-2.7,0-2.7-1.1s0.5-1,1.2-1c0.7,0,2.5,0.4,5,0.4h2.6c0.8,0,1,0,1,0.9V596
	c0,1.6,0,2.2,1.2,2.6s2,0,2,0.9s-0.9,0.9-2.7,1.5c-1.7,0.5-3.5,0.9-5.3,1.2c-0.5,0-0.9-0.3-0.9-1.1v-3.2l-0.5,0.4L534,599
	c-2.1,1.9-4.9,2.9-7.7,2.8c-4.6,0.5-8.8-2.9-9.3-7.5c0,0,0,0,0,0c0-0.4,0-0.7,0-1.1v-12.8C516.6,578.6,516.4,577.8,515.4,577.4
	L515.4,577.4z M568.6,598c1.1,0,2-1.3,2.9-1.3s0.7,0,0.7,0.9c-1.3,2.4-3.7,3.9-6.5,4c-2.3-0.1-4.3-1.8-4.9-4h-0.1l-1.6,1.1
	c-1.9,1.7-4.3,2.8-6.9,3.1c-2.5,0.3-4.7-1.5-5-4c0-0.2,0-0.3,0-0.5c0-4.8,4-7.3,11.3-10.2l1.8-0.7c0.8,0,0.8-0.6,0.8-1.3V581
	c0-3.2-0.5-4.5-2.9-4.5s-3.7,1.3-5,3.7s-2,3.4-4.9,3.4c-0.7,0-1.3-0.5-1.3-0.9c0-3.5,5.3-8,13-8c5.8,0,6.8,1.8,6.8,6.4V594
	C566.8,596.7,567.2,598,568.6,598L568.6,598z M560.9,588.5v-0.7c-0.2-0.1-0.5-0.1-0.7,0l-2.4,0.9c-2.5,0.7-4.2,2.9-4.3,5.5
	c0,2.3,1,3.5,2.7,3.5c2.8,0,5-2.2,5-5L560.9,588.5z M574.9,565.8c-1-0.5-2-0.4-2-1.1s1.2-0.9,3.1-1.5l5.2-2.1c0.7,0,0.9,0.4,0.9,1.1
	v34c0,1.3,0,2.1,1.5,2.4c1.5,0.3,3,0,3,1.1s-0.5,1-1.3,1s-3.6-0.4-6.2-0.4s-4.8,0.4-5.9,0.4c-1.1,0-1.2,0-1.2-1s1.1-0.7,2.6-1.1
	s1.5-1,1.5-2.4v-28.3C575.9,566.7,575.9,566.1,574.9,565.8L574.9,565.8z M634.4,565.8c0.9,1.9,1.3,3.9,1.1,6c0,0.7,0,1-0.5,1
	c-0.5,0-1.3-0.9-2.4-2.3c-1.9-3.2-5.4-5.1-9.1-5.1c-3.5,0-6.7,1.5-9,4.1c-3.1,3.7-4.8,8.4-4.7,13.2c-0.1,4.7,1.5,9.2,4.6,12.8
	c2.1,2.7,5.2,4.2,8.6,4.2c3.7,0.2,7.2-1.7,9-4.9c1.5-2.5,2-4.1,2.9-4.1c0.9,0,0.8,0.5,0.8,1.3v3.6c0,1.3,0,2.2-1,3
	c-3.3,2.2-7.2,3.3-11.2,3.2c-5.2,0.1-10.2-1.6-14.2-4.9c-4.1-3.6-6.4-8.7-6.4-14.1c0-5.5,2.6-10.7,6.9-14c4.1-3.3,9.3-5.1,14.6-5
	C627.9,563.7,631.3,564.4,634.4,565.8L634.4,565.8z M654.7,601.8c-7.1,0.7-13.5-4.5-14.2-11.6c0,0,0,0,0-0.1c-0.1-0.6-0.1-1.2,0-1.9
	c-0.1-7.5,5.9-13.6,13.4-13.7c0.6,0,1.2,0,1.8,0.1c7.4-0.7,13.9,4.8,14.6,12.2c0,0,0,0,0,0c0,0.5,0.1,1,0,1.5
	c0.1,7.5-5.9,13.6-13.3,13.6C656.1,601.9,655.4,601.9,654.7,601.8L654.7,601.8z M655.3,576c-5.3,0-8.5,4-8.5,11s3.6,12.9,8.6,12.9
	s8.5-4.2,8.5-11C663.8,581,660.2,576,655.3,576L655.3,576z M674.4,580.4c-0.8-0.3-2,0-2-0.9s1.4-1.1,3.6-2.1l4.8-3
	c0.3,0.3,0.5,0.7,0.5,1.2v3c0.2,0,0.3,0,0.5,0l0.7-0.7c1.8-1.9,4.3-3.1,6.9-3.1c3.3,0,6.3,1.7,8,4.5h0.4c2-2.8,5.3-4.5,8.8-4.5
	c4.4-0.1,8.1,3.3,8.2,7.7c0,0.2,0,0.5,0,0.7v13.4c0,1.5,0.3,2,1.4,2.4s2.7,0,2.7,1.1s-0.4,0.9-1.3,0.9s-3.1-0.4-5.7-0.4
	s-4.2,0.4-5.3,0.4s-1,0-1-0.9s1-0.7,2.1-1.1s1.3-1,1.3-2.4V587c0-5.9-1.2-8.8-5.3-8.8c-2.9-0.3-5.4,1.9-5.7,4.7c0,0.4,0,0.9,0,1.3
	v12.4c0,1.5,0,2,1.5,2.4s2.6,0,2.6,1.1s-0.4,0.9-1.3,0.9s-3.2-0.4-5.8-0.4s-4.2,0.4-5.2,0.4s-1,0-1-0.9s1-0.7,2.1-1.1s1.2-1,1.2-2.4
	V587c0-6-1.2-8.8-5.3-8.8c-1.6-0.1-3.1,0.5-4.2,1.7c-1.1,1.2-1.6,2.8-1.3,4.4v12.4c0,1.5,0.3,2,1.4,2.4s2.6,0,2.6,1.1
	s-0.4,0.9-1.2,0.9s-3.2-0.4-5.8-0.4S674,601,673,601s-1,0-1-0.9s1-0.7,2.1-1.1s1.3-1,1.3-2.4v-13.4
	C675.5,581.4,675.5,580.7,674.4,580.4L674.4,580.4z M728.6,608.5c0,1.6,0,2,1.7,2.5s3.2,0,3.2,1.3s-0.5,0.8-1.5,0.8s-4-0.4-6.5-0.4
	s-4.9,0.4-5.9,0.4s-1.2-0.3-1.2-0.8s1.1-0.7,2.7-1.3s1.5-0.9,1.5-2.5v-25.7c0-1.6,0-2.2-1.1-2.7s-2,0-2-0.9s1.3-0.9,3.2-1.9
	c3.1-1.5,4.4-3.1,5.1-3.1s0.7,0.4,0.7,1.2v3.1h0.6l0.7-0.7c2.1-2.1,5-3.3,8-3.3c6.6,0.1,11.8,5.6,11.7,12.2c0,0.2,0,0.5,0,0.7
	c0.3,7.6-5.7,14-13.3,14.2c0,0,0,0,0,0c-0.4,0-0.7,0-1.1,0c-2.2,0-4.4-0.4-6.5-1.3h-0.4L728.6,608.5z M728.6,594.5
	c0,3.5,2.1,5.3,5.8,5.3c5.4-0.2,9.6-4.8,9.4-10.2c0-0.2,0-0.4,0-0.6c0.7-5.1-2.8-9.8-7.9-10.5c-0.5-0.1-0.9-0.1-1.4-0.1
	c-4,0-5.8,1.8-5.8,5.6L728.6,594.5z M775.3,597.8c1.1,0,2-1.2,2.9-1.2s0.8,0,0.8,0.9c-1.3,2.3-3.6,3.8-6.2,4c-2.3-0.1-4.3-1.8-4.8-4
	h-0.4l-1.6,1.1c-2,1.7-4.5,2.7-7.2,2.9c-2.5,0.3-4.7-1.5-5-4c0-0.2,0-0.4,0-0.6c0-4.8,4-7.3,11.4-10.1l1.8-0.7
	c0.7,0,0.8-0.6,0.8-1.3v-4.1c0-3.2-0.5-4.5-2.9-4.5s-3.6,1.3-4.9,3.7s-2.1,3.4-4.8,3.4c-0.9,0-1.3-0.5-1.3-0.9c0-3.5,5.3-8,13-8
	c5.8,0,6.9,1.8,6.9,6.4v12.9C773.7,596.6,774,597.8,775.3,597.8L775.3,597.8z M767.8,588.5v-0.7H767l-2.3,0.9
	c-2.4,0.7-4.1,2.9-4.2,5.5c0,2.3,0.9,3.5,2.7,3.5c2.7-0.1,4.9-2.3,5-5L767.8,588.5z M795.1,578c-1.7-0.3-3.4,0.2-4.7,1.3
	c-1.3,1.2-2,2.9-1.8,4.7v12.4c0,1.5,0,2,1.3,2.4s2.7,0,2.7,1.1s-0.4,0.9-1.3,0.9s-3.2-0.4-5.7-0.4s-4.2,0.4-5.3,0.4s-0.9,0-0.9-0.9
	s0.9-0.7,2.1-1.1s1.3-1,1.3-2.4v-13.5c0-1.5,0-2.2-1.1-2.5s-1.9,0-1.9-0.9s1.2-1.1,3.7-2.3s3.6-2.8,4.3-2.8s0.7,0.5,0.7,1.3v3h0.6
	l0.7-0.7c2-2,4.8-3.1,7.6-3.1c4.6-0.6,8.8,2.7,9.3,7.3c0.1,0.7,0.1,1.5,0,2.2v12.3c0,1.3,0.3,2,1.4,2.4s2.7,0,2.7,1.1
	s-0.4,0.9-1.3,0.9s-2.9-0.4-5.8-0.4s-4.3,0.4-5.3,0.4s-0.9,0-0.9-0.9s1-0.7,2.1-1.1s1.2-1.1,1.2-2.4v-9.5
	C801.3,580.8,799.9,578,795.1,578L795.1,578z M832.6,578.9c0-0.9-0.7-1.1-1.7-1.3s-2.3-0.5-2.3-1.2s0-0.8,0.8-0.8h9.8
	c0.7,0,0.5,0,0.5,0.7s-0.5,0.8-1.9,1.1s-2,1.2-2.9,2.9l-5.9,12.4c-4.7,10-6.5,16.1-7.4,17.8s-1.6,2.7-4.3,2.7s-2.7-0.7-2.7-2.1
	c-0.1-1.6,1-2.9,2.6-3.1c0.2,0,0.4,0,0.6,0c1.4,0.2,2.7-0.7,3.1-2l1.5-3.2c0.3-0.5,0.4-1.1,0.5-1.7c-0.1-1.3-0.5-2.5-1-3.7
	l-5.9-14.3c-1.1-2.8-2-4.7-3.3-5.2s-2.9-0.4-2.9-1.4s0-0.7,0.9-0.7h6.5c2.1,0.1,4.3,0.1,6.5,0c0.6,0,0.9,0,0.9,0.7s0,0.8-1,1
	s-2.5,0-2.5,1.1c0.1,1.2,0.4,2.4,0.9,3.5l4,10.1c0,0.3,0.2,0.6,0.6,0.7c0,0,0,0,0.1,0c0.1,0,0.3,0,0.5-0.7l4.3-9.7
	C832,581.1,832.4,580,832.6,578.9L832.6,578.9z M845.8,107.9v265.9H167.7V107.9L845.8,107.9z M586.5,114.5v252.6h252.6V114.5H586.5z
	 M390.4,253v30.8c-12.8,11.4-23.6,17.2-33.5,17.2c-9,1-17.2-5.4-18.2-14.5c-0.1-0.7-0.1-1.4-0.1-2.2
	C338.6,268.3,355.4,260.1,390.4,253L390.4,253z M553.5,247.3h-54.9c0.8-22.5,11.8-34.4,27.7-34.4S553,225.2,553.5,247.3z M221.4,269
	l-16.7,5.7c8.7,27.5,27.5,41.3,55.2,41.3c29.5,0,48.3-17,48.3-42.8c0-24-12.2-34.6-38.9-44.5c-14.9-5.6-26.7-9-33.2-14.2
	c-6.2-4.3-9.9-11.3-10-18.8c0-15.6,9.6-25.5,27.1-25.5s29.8,9.6,35,28.1l15.5-4.5c-7.3-24.9-24.5-37.8-48.7-37.8
	c-27.5,0-45.4,16.4-45.4,41.2c0,20.2,12,30.9,35.6,40.1c12.5,3.8,24.6,9,36.1,15.3c7.1,4.8,11.1,13,10.5,21.5
	c0,16-12.3,26.9-32.4,26.9C241.6,301,227,289,221.4,269L221.4,269z M354.1,314.9c13.9-0.2,27-6.4,35.9-17l1.5,15.4h17.3v-1.6
	c-1.7-5.4-2.5-11.1-2.5-16.8v-62.5c0-21.1-14-33.2-37.6-33.2c-17.5-1.1-34,8.2-42,23.8l13.6,7.3c4.8-10.9,15.7-17.8,27.6-17.6
	c13.6,0,22.6,7.5,22.6,17.6v8.1c-45.9,8.8-67.4,21-67.4,45.6c-0.9,16.2,11.5,30,27.7,30.9C351.9,315,353,315,354.1,314.9z
	 M438.1,214.5v98.8h15.5v-98.7h23.3v-13.3h-23.6v-17.1c0-9.6,4.3-14.6,13-14.6c3.9,0.1,7.8,0.7,11.6,1.5v-12.9
	c-4.5-1.2-9.2-1.8-13.8-1.9c-17.4,0-25.9,9.8-25.9,29.1v15.8h-19v13.3L438.1,214.5z M572.6,288.7l-11.2-7.1
	c-5.8,12.5-18.4,20.4-32.1,20.1c-18.1,0-30.6-14.2-30.6-38v-3.6H570v-4.7c0-36.2-17.2-56.3-43.9-56.3c-26.7,0-44,21.2-44,58
	c0,38.1,16.4,58,45.4,58C549,315.1,563.7,306.7,572.6,288.7z M645.7,315.1c-29.3,0-45.4-20.1-45.4-58c0-36.8,17.1-58,45.4-58
	c18.8-0.3,35.5,12.1,40.6,30.2l-15.5,4.9c-4.5-14.1-14-21.6-25.9-21.6c-18.4,0-28.9,15.2-28.9,44.5s10.3,44.8,29.8,44.8
	c11.6,0,22.3-7.7,29.2-22.5l13.5,6.5c-9.3,19.8-23.5,29.2-42.9,29.2L645.7,315.1z M743.4,199.3c29.3,0,47.1,20.6,47.1,58
	s-17.8,58-47.1,58s-46.9-20.8-46.9-58S714.5,199.3,743.4,199.3L743.4,199.3z M743.4,302c19.5,0,30.8-15.3,30.8-44.7
	s-11-44.7-30.8-44.7s-30.9,15.2-30.9,44.5S723.7,302,743.4,302z"/>
<rect x="140" y="87" class="st2" width="800" height="547"/>
</svg>
