<svg xmlns="http://www.w3.org/2000/svg" height="800" width="1200" viewBox="-9.92187 -4.1909 85.98954 25.1454"><defs><clipPath clipPathUnits="userSpaceOnUse" id="a"><path d="M0 .0002h720v540H0z" clip-rule="evenodd"/></clipPath><clipPath clipPathUnits="userSpaceOnUse" id="b"><path d="M0 0h499.55v177.8H0z"/></clipPath></defs><g clip-path="url(#a)" transform="matrix(.10763 0 0 -.10763 -4.5 42.4578)" stroke-width="3.2777"><g clip-path="url(#b)" transform="matrix(1.4413 0 0 1.43627 0 170.64)"><path d="M125.04 95.704c0-2.667 1.18-3.556 5.03-3.556 4.15 0 5.93 1.185 8.6 6.815h.89l-.89-8.593h-25.19v.889c3.85.889 4.15 1.778 4.15 5.334v21.037c0 2.96-.59 3.85-4.15 4.74v.89h15.71v-.89c-3.26-.89-4.15-1.78-4.15-4.44zm25.18-.889c0-2.074 1.19-3.259 3.56-3.556v-.889h-13.34v.889c2.67.593 3.56 1.482 3.56 4.148v11.263c0 2.66-.89 3.26-3.85 3.85v.89l9.18.89h.89zm-3.26 30.815c2.08 0 3.85-1.78 3.85-3.85 0-2.08-1.77-3.56-3.85-3.56-1.77 0-3.55 1.48-3.55 3.56 0 2.07 1.78 3.85 3.55 3.85m17.19-18.67c2.07 2.08 3.26 2.67 5.04 2.67 3.55 0 6.22-3.85 6.22-8.89 0-6.814-3.26-9.777-8-9.777-2.37 0-3.26 1.185-3.26 3.556zm0 18.67h-.89l-8.59-.59v-1.19c1.77-.29 2.96-1.18 2.96-2.96V90.37c3.26-.592 6.52-.889 10.37-.889 10.37 0 14.52 5.334 14.52 11.849 0 6.23-4.45 10.97-10.37 10.97-2.96 0-5.63-1.19-8-3.86zM191.7 104c.3 4.15 1.78 6.81 4.45 6.81 2.66 0 4.44-2.66 4.74-6.81zm16-1.19c-.59 5.93-5.03 9.49-10.96 9.49-6.81 0-11.85-5.04-11.85-11.56 0-6.518 5.04-11.259 11.55-11.259 5.04 0 9.49 2.667 11.26 7.408h-.89c-2.07-3.259-4.44-4.741-7.7-4.741-3.85 0-7.7 3.556-7.41 10.662zm20.45 1.19c-1.78 2.07-3.26 2.96-4.74 2.96-2.08 0-3.26-.89-4.74-2.96v-8.889c0-2.37.59-3.259 3.55-3.852v-.889h-13.33v.889c2.67.593 3.55 1.482 3.55 3.852v11.259c0 2.67-1.18 3.85-4.14 4.15v.89l9.48.89h.89v-6.82c2.07 4.74 4.44 6.82 7.11 6.82 1.48 0 2.66-.6 3.85-1.78zm35.85 7.41v-.89c2.67-.59 3.26-2.08 1.48-6.82l-2.96-6.811-4.45 9.481c-1.48 2.67-1.48 3.85.89 4.15v.89H240.3v8.29h-1.19c-2.96-3.85-6.22-7.11-8.89-8.89v-.88h3.85V96.296c0-5.037 2.97-6.815 7.12-6.815 3.25 0 5.33 1.186 6.81 3.852l-.59.593c-1.19-1.185-2.08-1.778-3.26-1.778-2.96 0-3.85 2.074-3.85 5.333v12.449h5.63c3.26 0 4.14-1.19 5.33-4.15l7.7-16.299c-2.37-7.111-4.74-9.777-8.59-9.777-.89 0-1.48 0-2.96.592l-1.19-6.518H248c4.44 0 6.81 1.778 8.89 6.815l10.96 24.597c1.48 3.85 2.37 4.74 5.04 5.33v.89zm61.33-15.114c.6-2.963 1.78-4.74 5.04-5.333v-.889h-16.3v.889c3.56.889 4.15 2.963 3.56 7.407l-2.67 18.67-10.66-26.966h-1.19l-10.67 26.966-2.96-19.262c-.59-3.852.3-6.519 3.85-6.815v-.889h-11.85v.889c3.56.296 5.04 2.37 5.93 7.407l3.26 21.33c-1.48 1.49-3.26 2.37-4.74 2.37v.89h11.85l8.59-21.63 8.59 21.63h11.26v-.89c-3.55-.59-4.15-2.37-3.85-5.33zm7.71 10.374c0 2.37-.89 3.26-3.26 3.55v1.19l8.59.89h.89V96.593c0-2.667 1.78-3.852 4.15-3.852 2.07 0 3.26.889 5.03 3.852v10.667c0 1.78-.88 2.67-3.25 2.96v1.19l8.88.89h.89V95.407c0-2.963.6-3.555 3.26-4.444v-.889l-9.78-.889v5.334c-2.37-3.556-5.03-5.334-8.29-5.334-4.45 0-7.11 2.371-7.11 6.519zm30.22 2.96h-3.85v1.18c2.66 1.49 6.22 5.04 9.18 8.6h.89v-8h7.11v-1.78h-7.11V97.481c0-3.555.89-5.629 3.85-5.629 1.19 0 2.08.592 3.26 1.778l.6-.593c-1.49-2.667-3.56-3.852-6.82-3.852-3.85 0-7.11 2.074-7.11 6.815zm17.48-2.96c0 2.37-.89 3.26-3.55 3.55v1.19l8.88.89h.89V96.593c0-2.667 1.78-3.852 3.85-3.852 2.38 0 3.56.889 5.34 3.852v10.667c0 1.78-1.19 2.67-3.26 2.96v1.19l8.59.89h1.19V95.407c0-2.963.59-3.555 3.26-4.444v-.889l-9.78-.889v5.334c-2.37-3.556-5.04-5.334-8.59-5.334-4.15 0-6.82 2.371-6.82 6.519zm39.7-13.04c-1.48-1.186-2.66-2.074-3.85-2.074-1.78 0-2.96 1.481-2.96 3.851 0 2.963 1.48 4.149 6.81 6.523zm6.52 10.67c0 5.92-4.74 8-9.48 8-5.04 0-8.29-2.67-9.48-7.41h.89c1.48 2.37 3.55 3.55 6.22 3.55 3.85 0 5.33-1.77 5.33-5.63-5.03-1.77-13.63-2.37-13.63-7.995 0-2.963 2.97-5.63 6.52-5.63 2.67 0 4.45.593 6.52 2.667l.59.296c1.19-2.074 2.67-2.963 5.04-2.963 3.26 0 5.04 1.482 5.33 4.148h-.88c-.3-1.185-.89-2.074-1.78-2.074s-1.19.889-1.19 2.963zm8.3 15.11c0 2.96-1.19 4.15-4.15 4.44v.89l9.48.59h.89V95.407c0-2.963.59-3.555 3.85-4.444v-.889h-14.22v.889c3.26.593 4.15 1.481 4.15 4.444z" fill="#616265"/><path d="M106.07 112.59c-.29.3-.88 0-.88 0l-10.079-3.55c-.593 1.77-1.481 3.55-2.667 5.33l3.26 8.59s.296.89 0 1.19c-.297.29-.889-.3-.889-.3l-5.926-4.74c-2.074 2.37-4.741 4.15-8 5.63-.889.59-2.074.89-3.556 1.19l-1.777 7.11s0 .59-.593.59c-.296 0-.593-.59-.593-.59l-1.185-6.23c-1.185.3-2.37.3-3.852.3-4.444 0-8.296-.89-11.555-2.37-1.482-.59-2.667-1.48-4.148-2.37 0 0-.297-.3-.593-.3-1.185 2.97-2.074 5.63-2.37 6.23.889.59 2.074 2.96 2.37 4.44.593 2.07.593 2.96 0 4.74-.296.89-1.185 2.08-1.185 2.96.296.3.296.89.592 1.19 0 .59-.592.89-1.185.89-.592.29-.889 0-1.481 0 0 .29-.297.29 0 .89.296 1.18 2.37 1.78 4.444 2.66 2.371.89 3.556 2.67 3.556 5.34.296 2.07-.889 3.55-2.371 4.15-.296-.89-1.481-2.08-2.074-2.37-.889-.6-2.074-.6-2.666-.3 0 1.18-.593 2.67-1.778 2.96-.296-.59-1.482-1.48-3.556-1.18-1.777 0-2.074.29-4.74.29-3.852 0-7.112-2.37-7.408-5.63-.296-2.37.593-4.14 1.185-5.03-.592-.3-1.481-1.49-1.777-1.78-.297.29-1.186.59-2.074 0 .296-.3.296-.89.296-1.48-.296-.6-1.778-3.26-1.778-5.63-.296-3.85 1.778-6.22 3.556-7.11-.297-.6-.297-1.19 0-1.78 0-.3.296-.59 1.185-.59-.297-.6-.593-1.19-.297-1.78.297-.89 1.186-2.08 2.075-2.08 0-.59.296-2.37.296-2.96-.296-.59-.593-.89-.296-1.78 0-1.18.592-2.07 1.481-2.07 0-.59.296-1.19.593-1.48.296-.3.592-.59 1.185-.89.592-.59 1.185-.89 2.074-.89h1.778s0-2.37.296-4.74c-2.074-5.63-3.259-12.149-3.259-18.964 0-12.74 3.852-24 10.666-31.111 0 0 .297-.592 1.482-1.185 0 0 2.074 3.556 5.333 7.704.889 1.185 1.778 2.074 2.667 3.259 1.778 1.185 3.259 2.667 4.741 3.556 4.148 2.962 9.185 5.037 13.629 5.925-5.037-2.666-8-3.851-13.037-8-2.963-2.666-8-7.407-11.259-13.925.593-.297 1.778-.889 2.667-1.186.888.889 4.444 7.704 10.074 13.037C77.926 77.037 91.259 79.407 98.37 79.111c.297 2.963.593 5.926.593 9.185 0 5.037-.593 9.778-1.778 14.224l8.295 9.18s.59.6.59.89" fill="#002663"/><path d="M43.852 116.74c-.296.3-1.778.89-2.667.89-1.185 0-2.074-.3-2.963-.59-.296 0-.296.59-.296 1.18.296.59.593.59.593.59l-.297 5.34s1.482 1.18 2.074 1.18c.297 0 .593.3.593.89.592-.59 1.481-1.48 2.074-2.37.296-.59.593-1.18.593-2.07.296-.89.296-2.08 0-2.97.296-.29.592-.59.592-.88.296-.6 0-.6-.296-1.19m48.296-16.3c0 .89-1.185 3.86-2.074 4.45l12.736 5.63zm-34.37 20.75l10.666-9.78c-1.185-.3-2.666-2.08-2.963-3.26zM64 102.22c-.296-.59-.593-.89-.593-1.78-.296-.588 0-.884 0-1.477l-3.259 2.077c0 .89-.296 2.07-.296 2.66v.3z" fill="#fff"/><path d="M45.926 101.04c0 .59-1.185 20.15-1.185 20.74l1.185.89c-.889 0-1.778.29-2.074.89l-.296 5.92c-.889 0-2.075.59-2.371.89-.592.59-.889 1.19-.296 2.07.296-.29 2.074-.59 3.259-.59.296 0 .889-.59 1.185-.89.297 0 1.186-.59 1.482-.59.296 0 .296-.89.296-.89.296-.29 10.074-25.48 10.074-25.78.296-.29.889-4.737.889-5.033 0-.297 1.482-3.556 1.778-3.852-1.482 0-3.556-.889-5.333-2.371-1.482-1.777-2.963-5.333-3.556-7.111 0 .889-4.741 15.407-5.037 15.707M58.37 77.037c-.592-3.852-1.481-7.111-2.963-9.481-.888-1.778-3.259-4.741-4.148-5.926.889 1.777 1.778 6.518 1.482 10.074 0 2.37-.593 7.703 0 10.963.592 3.852 1.778 5.926 4.148 8.296 1.185 1.185 3.852 2.667 7.407 1.481l3.26-5.629c-1.778.296-3.852 0-5.334-.889-2.666-2.074-3.555-4.741-3.852-8.889" fill="#fff"/><path d="M58.667 69.333c.592 1.778 1.777 6.519 1.777 8 .593 2.074.889 4.741 3.26 6.815 1.185.889 2.963 1.185 3.852.889l3.259-6.815c.296-.889 1.185-1.185 2.074-.889-3.259-1.185-11.259-5.037-14.222-8m28.74 21.926c-.592-.592-.296-1.481 0-2.074.297-.592 2.074-3.852 2.074-3.852.593-1.777.889-2.37 1.482-3.259h3.259c-1.185 2.667-4.148 7.704-4.148 7.704v4.148c-.889-.593-2.074-1.778-2.667-2.667M72.889 113.19c1.481.29 4.444 0 5.333-.6l-2.963 17.48zm-25.778 16.29s0 .89-.296.89-1.185.59-1.482.59c-.296.3-.889.89-1.185.89-1.185 0-2.963.3-3.259.59-.593-.88-.296-1.48.296-2.07.296-.3 1.482-.89 2.371-.89l.296-5.92c.296-.6 1.185-.89 2.074-.89l-1.185-.89c0-.59 1.185-20.15 1.185-20.74.296-.3 5.037-14.818 5.037-15.707.593 1.778 2.074 5.334 3.556 7.111 1.777 1.482 3.851 2.371 5.333 2.371-.296.296-1.778 3.555-1.778 3.852 0 .296-.593 4.743-.889 5.033 0 .3-9.778 25.49-10.074 25.78m-5.926 4.74c2.667 0 3.852-1.18 4.445-1.78.296.89 0 1.78-.889 2.37-.593.6-1.778 1.19-3.852 1.19-1.185 0-2.667-.3-3.259-1.19-.889-.59-.889-1.18-.889-2.37.296.89 2.074 1.78 4.444 1.78m-5.037 14.22c0-.88.296-2.07.593-2.66.296-.3.889-1.19 1.481-1.19.593.3 1.482 1.48 2.963 1.48 1.185 0 1.778-1.48 2.667-1.77.592 0 .889.89 1.778.89.592 0 .592-.3 1.185-.6 0 .6.592.89 1.481 1.48.889.89 4.741 1.78 6.223 2.97.888.89.888 2.07.888 2.96-.592-.89-2.37-1.78-3.851-1.78-.889 0-2.963.3-3.556.59.296.6.593 1.49.296 2.08-.592-.59-2.963-.59-3.852-.59-.888 0-2.666.29-3.851.29-2.963-.29-4.445-2.37-4.445-4.15" fill="#fff"/><path d="M41.185 139.26c6.519 0 9.185-2.96 9.482-5.33.296.59.296 1.48 0 2.07 0 .89-.889 2.67-.889 3.26 0 .59 0 .89.296 1.48-.593 0-1.778-.59-2.37 0-.889.3-.297 1.78-1.185 2.07-.889.3-2.075-.88-2.963-.59-.889 0-1.778 1.19-2.371 1.19-1.185 0-1.481-1.19-2.666-1.19-.889-.29-1.778.3-2.371.3-.296-.3-.889-.59-.889-1.19-.296-.29-.592-.59-1.185-.89-.593 0-1.185.3-1.481.3 0-.3.296-1.48 0-2.07-.297-.89-.889-1.78-1.186-2.67 0-1.19.297-1.48.593-2.07-.296 3.26 3.556 5.63 9.185 5.33m-3.852-12.15c-.592 0-1.481-.89-2.074-1.48.297-.59.889-1.78 1.185-2.07.297.59.889 1.48 1.186 1.77.296.3.592.3.889.6.592.29.592.29.592.59 0 .59 0 .59-.296.89.296 0 .889 0 1.185.29.296.3.296.6.296 1.19 0 .3-.296.3-.592.3h-1.778s.593.59.889.59c.296.29.296.29.592.59 0 .3 0 .59-.296 1.19-1.185 0-3.259-1.19-3.852-1.49l.593-1.18h-.889c-.296-.59 0-1.48 0-1.78h2.37m52.148-25.18c-.296.88-2.37 2.96-5.629 5.63-2.667 2.07-6.519 3.85-9.482 3.85-5.333 0-7.703-3.56-8-5.63-.296-.89-.296-2.37 0-2.97-.889-.59-1.185-1.18-1.185-2.07-.296-.59 0-1.481.593-2.073-.297.889.296 1.773.889 2.373.296.59 1.185.89 1.777 1.18l.297-1.18c-.593-.6-1.482-1.484-1.778-1.781l.296-2.37 1.778.889.296-.593-.592-4.148h.889l2.074-.593-2.074-1.481v-.593s.296.297 1.185.297c.592 0 2.074-.889 2.074-.889v-.297H69.63c0-.592.296-.888.592-.888.297 0 .889.296 1.185.296 0 0 .593-.296 1.186-.296L72 88s-.296-.296-.889-.296c-.296 0-.592-.297-.592-.593s.296-1.481.296-1.481c.296-1.186 1.778-.889 1.778-.889.888 0 3.851 1.185 3.851 1.185l-2.666-3.852 1.185-4.148c1.778.593 7.111 2.667 13.037 3.555-.593.889-.593 1.482-1.482 2.963l-2.962 7.112.296.888c.592-.296 1.778.297 2.37.889.593.593 1.482 1.482 1.778 2.074-.296.297-.889.297-1.185 0-.297-.296-.593-.888-1.185-.592-.593.296-.297.889 0 1.481 0 .593-.889.593-1.186 0-.592-.296-1.481 0-2.074.593-.889.592-4.148 3.261-5.037 3.851-1.777.89-4.148 1.19-5.629.89-.889 0-1.778-.59-2.074-.3l-1.186 1.78.297.3c.296-.3.889-.6 1.185-.6.593.3 2.37.6 4.148.6 2.37.29 5.333-.6 6.519-1.19 0-1.78 3.259-3.553 4.74-3.85 1.185 0 1.778.297 2.667.593l-3.259 2.667 1.777 2.07s2.667-2.37 2.963-2.96v1.19m-18.666-3.263s1.185.889 2.666 1.185c1.778.298 3.852-.889 5.334-1.778l-.297-.593-2.074-.592c-.592.592-1.185.592-2.074.592-.889 0-1.481-.296-1.481-.296l.592-.592-.888-.297c-.593.593-1.186 1.185-1.778 1.482zm-3.259 4.743c-.593 2.07.888 3.85 1.777 4.44l.889-2.37c-.889-.29-2.074-1.48-2.666-2.07m9.777 2.07c-1.185.89-4.444.59-5.629.3l-.889 2.96c.592.3 2.074.89 3.259.89s2.667-.3 3.556-.89zm6.223-2.67c-1.482.89-3.852 2.08-4.741 2.38L80 108.15c.889-.59 4.444-2.67 5.037-3.26zm-.593 7.71c1.185-.3 3.852-2.37 4.444-2.96l6.519 13.63z" fill="#fff"/><path d="M451.56 97.481c2.07 0 3.85-1.481 3.85-3.555 0-2.37-1.78-3.852-3.85-3.852-1.78 0-3.56 1.482-3.56 3.852 0 2.074 1.78 3.555 3.56 3.555m0-6.518c1.77 0 2.96 1.185 2.96 2.963s-1.19 2.963-2.96 2.963c-1.49 0-2.67-1.185-2.67-2.963s1.18-2.963 2.67-2.963m-1.19 4.741h1.48c.89 0 1.48-.297 1.48-1.185 0-.593-.29-.889-.89-.889l.89-2.074h-.59l-1.18 1.777h-.6v-1.777h-.59zm.59-1.778h.89c.3 0 .89.296.89.889 0 .296-.59.296-.89.296h-.89zM114.07 77.037h128.59v1.4815H114.07zm146.37 0h185.48v1.4815H260.44zM188.15 48h3.5556v17.778H188.15zm13.33 17.778h2.96l7.71-12.741v12.741h2.96V48h-2.96l-7.41 12.741h-.3V48h-2.96zm24.3-12.445c1.18-1.777 3.26-2.666 5.33-2.666 1.48 0 3.85.592 3.85 2.37 0 1.185-1.48 1.778-3.85 2.37l-1.78.297c-2.96.592-5.63 1.777-5.63 5.037 0 3.852 3.86 5.629 7.11 5.629 2.97 0 5.63-1.185 7.41-3.555l-2.66-2.074c-.89 1.481-2.67 2.37-4.75 2.37-2.07 0-3.55-.592-3.55-1.778 0-1.481 1.78-2.074 3.85-2.37l2.08-.593c2.66-.592 5.33-1.481 5.33-5.037 0-4.444-4.15-5.926-8-5.926-2.96 0-5.93 1.482-7.71 3.852zm35.85 0c0-3.555-2.96-5.926-7.41-5.926-4.15 0-7.11 2.371-7.11 5.926v12.445h3.26V54.222c0-2.074.89-3.555 3.85-3.555 2.97 0 3.85 1.481 3.85 3.555v11.556h3.56zm9.48 12.445h7.41c3.85 0 6.22-2.074 6.22-5.334 0-4.148-2.67-5.037-3.55-5.333L285.04 48h-3.85l-3.56 6.519h-3.26V48h-3.26zm3.26-8.297h3.85c1.78 0 2.97.889 2.97 2.667 0 1.778-1.19 2.667-3.56 2.667h-3.26zm23.41 8.297h3.85L307.56 48H304l-.89 3.556h-6.81L295.11 48h-3.55zm1.78-3.259l-2.37-8h5.03zm15.7 3.259h2.96l7.41-12.741h.3v12.741h2.96V48h-3.26l-7.41 12.741V48h-2.96zm34.67-5.926c-.3 2.074-1.78 3.259-3.86 3.259-3.55 0-5.03-2.963-5.03-6.222 0-2.963 1.48-6.222 5.03-6.222 2.37 0 3.56 1.481 4.15 3.555l3.26-1.481c-1.48-3.556-3.85-5.334-7.41-5.334-5.92 0-8.59 4.445-8.59 9.482 0 5.037 3.26 9.481 8.59 9.481 3.56 0 6.23-2.074 7.12-5.629zm10.66 5.926h12.74v-2.963h-9.18v-4.148h8.29v-2.963h-8.29v-4.741h9.78V48h-13.34z" fill="#616265"/></g></g></svg>